<?xml version="1.0" encoding="UTF-8"?><svg xmlns="http://www.w3.org/2000/svg" xmlns:xlink="http://www.w3.org/1999/xlink" height="500.1" id="Layer_1" preserveAspectRatio="xMidYMid meet" version="1.1" viewBox="-0.3 -0.1 218.1 500.1" width="218.1" x="0" xml:space="preserve" y="0" zoomAndPan="magnify"><g><g id="change1_1"><path d="M118.6017303,72.1032791l-0.0669785,0.2550354c-0.7341843,2.7474136-1.4851227,5.4291306-2.2321854,7.9756088 l-0.033493,0.1069031c-1.3357086,4.5468216-2.7306671,8.8914108-4.147522,12.9127045 c-0.3748245,1.0652161-0.7560883,2.1201324-1.1437912,3.1647415c-0.3748169,1.0098267-0.7547913,2.0080719-1.1412125,2.9972916 c-1.2983551,3.3283234-2.6405029,6.4595718-3.9865112,9.3074493c-0.441803,0.9312592-0.8887558,1.8432007-1.3421478,2.7371063 l-1.6345367,3.2239914l3.5962372-0.3606567c0.5603027-0.0553818,1.1605301-0.1146317,1.8019791-0.1738815 c1.4490585-0.1352463,3.0616989-0.2730713,4.6962357-0.3889923l1.2275085-0.0875854l0.4636993-1.1386414 c0.2943192-0.7203369,0.6588364-1.6351776,1.0394592-2.6372833c-0.0524902,0.1384659-0.1065903,0.2853088-0.158432,0.4205475 l-1.2996445,3.3257523l3.0191879-0.1159286l-0.0090179-1.9797287l0,0l0.2086639,1.9720001l0.2112427-0.0115891 c0.2485962-0.0103073,0.4971848-0.0218964,0.7277527-0.0399323c0.5757523-0.0450821,1.0896835-0.1120605,1.5533829-0.1932068 c0.2640533-0.0450821,0.5139313-0.0966034,0.7535095-0.1519928c2.6701279-0.6208344,3.789444-1.8006897,4.2196579-2.4485779 l0.1597137-0.2395782l0.083725-0.2756424c4.6717529-15.2852936,15.1358795-54.6442451,11.4159851-89.8943176l-0.1970673-1.8560791 l-6.9425964,0.3258762l-0.2382813,1.6100636c-0.7380524,4.9757366-3.5163803,22.7521191-8.3169403,42.642189 C120.1512604,66.1447601,119.3810043,69.1794052,118.6017303,72.1032791z M116.5782089,107.5955048 c-0.2675934,0.7679977-0.5442047,1.5153885-0.8166275,2.2347641c0.1156006-0.3059082,0.2321701-0.6169739,0.3490601-0.9351196 c0.1883774-0.5110397,0.3754654-1.0333405,0.5557938-1.5553207c-0.0012894,0.0032196-0.0019302,0.0064392-0.0032196,0.0096588 L116.5782089,107.5955048z M81.254715,112.7167892c-7.9356766-16.4149094-21.9329185-51.0750542-26.5029182-98.7895889 l-0.1081963-1.1270437l0.9183769-0.6646338c1.2172089-0.8797379,3.768837-2.5413227,7.1898994-3.7933083l2.2360535-0.8191996 l0.3954315,2.3481159c1.4104156,8.3916473,6.8292389,37.9536896,17.2933655,66.0666733l-1.7878189,0.8681488l1.853508-0.6916885 c1.2494049,3.3502197,2.527153,6.5639038,3.7958832,9.5534744l0.0296249,0.0669785 c1.262291,2.9715271,2.6031494,5.9172974,3.9852295,8.7574463c2.0763321,4.2634506,4.1874466,8.1533585,6.3088684,11.6310959 c0.9544449,1.5649796,1.9565506,3.1106415,3.0655594,4.7258606l1.3910904,2.0286789l-2.2798462,0.9248199 c-0.6221313,0.2511673-1.2287979,0.4791489-1.8122864,0.682663c-0.8939056,0.3104172-1.7684937,0.5731812-2.6070175,0.7870026 l-0.1880493,0.1854782l-0.5963669,0.0012894l-1.2764587,0.2550278l-0.7187347-1.1914444 c-0.9067841-1.507019-2.3352356-3.9401474-3.9852295-6.9760818c-1.3382797-2.4588852-2.5941315-4.895874-3.7314758-7.2388382 l-0.0296249-0.0322037c2.5954208,5.3196487,5.1560593,9.8677521,6.8511353,12.7465439l1.7543259,2.9805527l-3.4584122,0.0012894 h-0.0077286c-3.3721161,0-6.1839294-1.0497665-7.7141342-2.8800812l-0.1571426-0.1867676L81.254715,112.7167892z M80.4264984,60.4052086l0.0270538,0.1133461c2.8813629,11.9183273,5.8722153,21.7268295,8.8888321,29.1537323l3.7662582-1.1180267 c0.9016342,4.6550064,1.8213043,8.9377747,2.7074814,12.7851791l0.1146393,0.4971924l0.3413315,0.3799744 c1.6074829,1.7929688,3.2085342,2.7023315,4.7567673,2.7023315c0.0850143,0,0.16745-0.0025787,0.262764-0.0077286 c0.6079559-0.0399323,1.2249374-0.2099533,1.8341827-0.4946136l0.1339569-0.0592499 c0.5821991-0.2820816,1.148941-0.6684952,1.7324295-1.1811447l0.9454269-0.832077l-0.3542099-1.2094803 c-0.2695313-0.9190216-0.532608-1.8348312-0.7934418-2.7490234l1.241684,4.2431641l2.4356995-3.927269 c0.9132309-1.5559616,1.8470612-3.4571228,2.7757492-5.6519623l0.2653351-0.6259918l-0.1751709-0.6569061 c-0.5667419-2.1175537-1.1115875-4.2544327-1.6358261-6.4041901c-0.1481247-0.6040955-0.2936783-1.2081909-0.4392242-1.8135681 l3.8770294-0.2370071c0.4688492-4.1552505,0.7663879-8.2679901,1.0098343-13.0737076l3.9040756,0.537117 c1.3923874-6.1517258,2.4588928-12.2661018,3.0874557-17.682354l0.0103073-0.0875854l0.0012894-0.0888748 c0.4585419-17.4324722,0.5551453-31.2957573,0.5757599-36.4466705l0.0077286-1.8663845l-12.2158737-0.7599497l-0.0309067,2.073761 c-0.242157,16.3659668-1.137352,35.3453865-2.6572495,56.4140205l-0.0167465,0.2266998 c-0.0180359-0.0875854-0.0360641-0.1751709-0.0541-0.262764c-6.3359146-30.6465759-8.9248962-60.7289886-9.3795776-66.4479294 l-0.1133499-1.4207196L87.371666,1.9753857l-0.1674423,2.3442516c-0.3245926,4.523632-0.5319672,9.2791138-0.6169815,14.1350632 c-0.0115891,0.6697865-0.0193176,1.3369961-0.0257568,2.0003414c-0.0077286,0.6710739-0.0103073,1.3408604-0.0115967,2.0067825 c-0.0054703,1.7343597,0.0051575,3.4603462,0.029953,5.1769962c-0.0273743-1.8805542-0.0421906-3.7546673-0.0338135-5.6162224 l0.0077286-1.7710686l-7.032753-0.8114719l-0.1764679,2.026104c-1.0008087,11.4687977-0.6427383,24.5296268,1.0677948,38.8218307 L80.4264984,60.4052086z M101.8351822,87.1019821c0.4672394,1.9597702,0.9486465,3.8776703,1.4455185,5.770462 C102.7706299,90.9319992,102.290184,89.0131226,101.8351822,87.1019821z M101.4655151,85.5466614 c-2.1935501-9.5006638-4.0084152-20.0278931-5.7125015-33.1325188l-0.0875931-0.6684952l0.0785751,0.5937881 c1.7092438,13.156147,3.5331192,23.728466,5.7395477,33.2729149l0.2531052,1.0748749 C101.6471252,86.307251,101.553421,85.9269562,101.4655151,85.5466614z M104.6315384,97.8372345 c-0.4385757-1.5511322-0.849144-3.0678101-1.2474747-4.5735474c0.4511414,1.7063446,0.915802,3.4020691,1.3978577,5.0942383 C104.7323303,98.1850052,104.6804886,98.0101547,104.6315384,97.8372345z M114.3498764,65.7815323 c0.0978928-2.3326607,0.191925-4.8443604,0.2923889-7.5969238 C114.5430832,60.9178505,114.4490585,63.4308357,114.3498764,65.7815323z M87.5178604,47.6441727 c-0.1088409-1.3914185-0.2051239-2.7770386-0.2956085-4.16008C87.3137054,44.8796959,87.4106293,46.268856,87.5178604,47.6441727z M88.4062958,57.2820091c-0.1275177-1.1959572-0.242157-2.3864365-0.3567886-3.5765953 C88.1644592,54.9045906,88.2810287,56.1018333,88.4062958,57.2820091z M87.9316483,52.5039864 c-0.1230087-1.3276596-0.2334595-2.6498413-0.3400497-3.970417C87.6991577,49.8657379,87.8105698,51.1924286,87.9316483,52.5039864 z M86.6964035,32.6915207c-0.0511932-1.6470966-0.0895157-3.2874279-0.1139908-4.9209976 C86.6072083,29.4201927,86.6455307,31.0608482,86.6964035,32.6915207z M87.1704102,42.7164154 c-0.0908051-1.4419746-0.1690598-2.8778267-0.2402191-4.310463C87.0019989,39.8514671,87.0805664,41.2898979,87.1704102,42.7164154 z M86.8947678,37.7261848c-0.071167-1.507019-0.1297684-3.0072746-0.179039-4.5033455 C86.7656403,34.7324333,86.8242493,36.2349434,86.8947678,37.7261848z M128.0998077,118.3236771l2.7757568,3.7018509 l-0.3542175-0.0425034l-3.1454163,2.9045563c-2.3287964,2.1523285-6.7712784,3.5060654-14.4016876,4.3909531l-0.1635818,0.0115967 c-6.0937653,0.1970673-11.9144669,0.6118317-17.3023834,1.232666c-1.0420303,0.0605316-1.9127502,0.083725-2.735817,0.083725 c-11.4675064,0-13.5322571-4.6215286-13.8916245-6.0383835l-0.1326675-0.524231l0.1519928-0.5177994 c0.453392-1.548233,1.640976-2.831131,3.631012-3.9234009c0.5963669-0.3271637,1.2725906-0.6427383,2.0145111-0.9402771 c1.6152115-0.6465988,3.6052551-1.2468338,6.0808868-1.8341827l0.2292709-0.0528107 c0.5551529-0.1300888,1.1412125-0.2588959,1.7478867-0.3877029l0.6569061-0.1416855 c0.3426208-0.0708389,0.6311417-0.1223679,0.9196625-0.1751709l0.4289246-0.0785751 c0.9930878-0.1867676,1.9913254-0.3567886,2.9998703-0.5100708c0.6723633-0.1030426,1.3421478-0.2009354,2.0157928-0.2885208 l2.0261078-0.2524567l1.3679047-0.1416855c0.5525742-0.0553894,1.0935593-0.1082001,1.6319656-0.1532745l0.1468353-0.0115967 c0.6066742-0.0528107,1.2429657-0.1056213,1.8663864-0.1481247l2.0209503-0.1172104 c1.1334839-0.0579681,2.2347641-0.0991821,3.2896805-0.1210785c0.5950775-0.0128784,1.1721268-0.0193253,1.73629-0.020607 l0.3284531-0.0038681c1.4065475,0.0012894,2.7203598,0.033493,3.9040833,0.0966034 c0.578331,0.0309143,1.1141586,0.0708466,1.619072,0.1146393l0.4315033,0.0386429 c0.7741165,0.0772781,1.4258652,0.1700211,1.9810181,0.274353c0.2138138,0.0399323,0.3980103,0.074707,0.5564346,0.1133499 c0.2859497,0.0669785,0.5538635,0.1558533,0.8192062,0.2473068l0.3722458,0.1262283 c0.5886383,0.2009354,1.1115875,0.4224777,1.5817261,0.6723557h0.0476532l0.6736526,0.4302139 C126.8066101,116.8630219,127.5034485,117.5302353,128.0998077,118.3236771z" fill="#55b71c"/></g><g id="change2_1"><path d="M129.3195953,210.1706696l-3.222702,3.5189514c-5.4265518,5.9250336-11.1841354,8.928772-17.1130295,8.928772 l-0.1764679-0.0038757c-6.8253784-0.0334778-12.5018158-4.105011-16.0491028-7.5144806l-3.3308945-3.2020874 L129.3195953,210.1706696z" fill="#fff"/></g><g id="change3_1"><path d="M45.1558228,247.9697876c0.2756424,2.4524536,0.5448456,4.8366394,0.8307915,7.1770172l-3.6065407,1.3421478 c-13.4356518-20.0227356-23.8482494-43.619812-30.9466934-70.1356201 c-1.7208357-6.4247894-7.7089806-31.7208099-9.2095594-39.4375153c-0.4044478-2.0802002-0.3091321-3.5756378,0.2846591-4.456665 c0.4263446-0.6594696,1.1875823-0.9930878,2.2669683-0.9930878l1.4001107,0.0373535 c-0.1094842-1.4207153,0.5126438-3.0913086,2.1677885-3.5189514c0.3233004-0.083725,0.6440248-0.1275177,0.9505806-0.1275177 c0.6710749,0,1.2854748,0.2022247,1.7775097,0.5847778l0.7960148,0.6169739l0.0218973-0.0167389 c0.2163925-0.1687317,1.3601809-1.0085449,2.5387468-1.0085449h0.2769308l0.3915672,0.0914459 c0.9673252,0.2782288,1.6937866,1.191452,2.1574841,2.716507c1.3125229,4.3123932,3.3463535,13.4304962,3.7005692,15.0354004 l0.038641,0.1017609c0.2885227-1.2957764,1.0626411-3.5331268,2.0763359-4.4476318l1.865097-1.6770477l1.1978874,2.2038574 c0.7921505,1.4593658,0.5319653,4.3742218-0.3516388,10.3559265c-0.8063183,5.454895-1.8071346,12.2287445-0.5255241,17.5574036 c2.2424965,9.3332214,6.8923588,24.3557434,16.3092937,42.9204102l0.1288033,0.2537537l0.0515213,0.2807922 C43.4143791,232.4127197,44.2992668,240.3213501,45.1558228,247.9697876z M215.3922729,145.1524658 c-1.0729523,7.6149597-5.7833557,31.9900208-7.2839355,38.7935028 c-8.8038177,39.9166718-26.0868835,70.985733-35.6055603,85.9528656c-1.0677948,1.6796265-2.0480042,3.1724854-2.9341888,4.4940186 c-1.0343018,1.5392151-1.9398041,2.8453064-2.6714172,3.8757324l-0.9402771,1.3035278 c-0.7071381,0.9698792-1.1540833,1.554657-1.2610016,1.6924744l1.3060913,0.6749573l-0.2588959,1.4374695 c-1.9848938,11.0089417-4.1127472,23.9654541-6.3243256,38.5075378 c-1.8290405,11.8783875-3.7778625,25.4351196-6.1311188,42.6692505c-0.1880646,1.3692017-0.391571,2.7203369-0.6066742,4.0637817 l-0.1519928,0.9261169c-0.2151031,1.307373-0.441803,2.6070251-0.68396,3.8834839 c-0.1494141,0.7921448-0.3065491,1.5417786-0.4636993,2.2914124l-0.6337128,3.0385132l-2.2978821-1.1489258 c0.1030426,0.3825378,0.4289246,1.6268005,0.4289246,1.6268005c0.2485809,0.9737549,0.5049133,1.9578247,0.7754059,2.9663696 l1.0098267,3.7456665c0.3220062,1.1849976,0.6453094,2.3944702,0.9686127,3.6297302 c4.5030212,17.1671143,12.8869476,49.1236572-16.1560211,89.7667847 c3.1016388,3.6902771,6.7648468,11.5641174,0.8565674,17.7106934l-1.03302,1.075531l-1.3189697-0.6981201 c-2.4086456-1.275177-8.7986679-5.5785522-16.0993347-17.9760437l-0.7547989-1.2816162l1.0227127-1.0819397 c4.4167252-4.666626,26.2234192-29.8969421,21.7616119-68.3168945l-0.0476685-0.4096069l-0.0051422-0.2511902l-0.0450897-0.154541 l-0.0167389-0.1571655c-0.0875854-0.6916809-0.1829071-1.387207-0.2872314-2.0866394l-0.0476685-0.1403809l-0.0012817-0.1816101 c-0.1545715-1.0201416-0.315567-2.0428467-0.5100708-3.0797424c-0.1326599-0.7058411-0.2782135-1.3769226-0.4237671-2.0467224 l-0.1030426-0.4778442c-0.2254028-1.0523376-0.4701385-2.1098328-0.7354736-3.1776428l-0.1494141-0.6066589 c-0.1687317-0.6878052-0.3374786-1.3769226-0.5306854-2.0750427l-0.0012817-0.0012817 c0.041214,0.7187195,1.1502228,22.6323242-14.4506378,30.9672852l-0.1751709,0.0927429l-0.1893463,0.0566711 c-0.3670959,0.1107788-0.7354736,0.2138367-1.0987091,0.2923889c-0.1416855,0.0296326-0.2704849,0.0528259-0.399292,0.074707 c-0.4495316,0.077301-0.7947311,0.1236572-1.137352,0.1545715c-0.2266922,0.0193176-0.4314957,0.032196-0.632431,0.039917 l-0.3400421,0.0051575c-0.2009354,0-0.3992996-0.0051575-0.5976563-0.0154419 c-0.2717819-0.0128784-0.46241-0.0231934-0.6491776-0.0437927c-0.3194351-0.03479-0.6337204-0.0927429-0.9467163-0.1558533 l-0.1365356-0.0270691c-0.1481247-0.0270386-0.2962494-0.0566711-0.4405136-0.0953064 c-0.5448456-0.1468506-1.020134-0.3104248-1.4567871-0.5023499c-11.3773422-4.9692993-17.4028397-18.6419373-21.3816299-29.997406 l-0.1107712-0.3207092c-0.2202606-0.633728-0.4379349-1.2713013-0.6517563-1.9114685c0,0-0.4598312-1.3859253-0.6646347-2.0183716 l-0.2369995-0.2447205l-0.0012894-0.4920349c-0.611824-1.908905-1.2056122-3.8422546-1.7878113-5.7885132l-1.5250549-5.1998596 l0.3606567,3.4184875c0.9132309,8.6247864,0.9608841,9.637207,1.2236481,15.2543945l0.0618286,1.3292542l-0.2524567,0.476593 c-4.4695358,8.4702148-5.53862,16.0039978-3.1763382,22.3901672c4.7361603,12.8070679,21.7706299,17.4968567,26.8777466,18.6277771 l1.7324295,0.3838501l-0.1932068,1.7646179c-1.4967194,13.6018066-4.5468216,21.4331665-6.2315903,24.8902893l-0.8359451,1.7156677 l-1.7453079-0.7741089c-7.5428238-3.346344-7.357338-11.8461914-6.0589905-16.34021 c-18.8119659-8.5358887-29.3069992-19.3748474-31.1939926-32.2218628 c-2.3610001-16.0748596,9.2546387-31.1141357,16.3891449-38.6479492l2.832428-2.9921265l-0.5886459-2.0364075 c-2.8452988-9.8651733-5.7884903-20.0678406-9.6397629-28.4994202 c-6.4595718-14.138916-16.8245125-41.0488586-24.7782249-70.3558655l-0.2730637-1.0188599 c-0.3207245-1.1914368-0.6401634-2.3931885-0.9505806-3.5949402l-0.2485962-0.9634705 c-0.3374672-1.3086548-0.6672096-2.6173096-0.9892235-3.9246826l-0.1957817-0.788269 c-2.6842957-10.9973907-4.6034927-20.9784851-5.7047729-29.6638031c-0.0296249-0.2305603-0.1944962-1.3859406-0.1944962-1.3859406 c-0.2460175-1.6718903-0.564167-3.4815979-0.9686165-5.5090027l-0.0566711-0.2794952 c-0.4108887-2.0389862-0.9029236-4.296936-1.5521011-7.1242065c-0.2988281-1.3009338-0.5886383-2.5529175-0.8848915-3.8216553 c-4.9345207-21.1768341-11.075943-47.5303345,3.3862839-66.1387939 c7.6201057-9.8059235,19.7999077-16.4033203,37.2362442-20.1695862c9.7840271-2.114975,21.4138336-3.3244476,34.564827-3.5936584 l4.8829956-0.0927429c1.0987091-0.0154419,2.2180252-0.0244598,3.3476486-0.0270386h1.6937866 c0.632431,0.0051422,2.3506851,0.0296173,2.3506851,0.0296173c0.5152283,0.0103149,2.3275146,0.0644073,2.3275146,0.0644073 c0.7019806,0.0244751,1.4129791,0.0566711,2.1278534,0.0940247l0.2524567,0.0128784 c2.5361786,0.1365356,4.906189,0.3490601,7.2092133,0.6478882l0.432785,0.0605469 c0.632431,0.083725,1.2764587,0.1777496,1.9192047,0.2807922l0.632431,0.1069031 c0.5731812,0.0966034,1.1437836,0.200943,1.7131042,0.3104248l0.6813812,0.1378174 c0.5963593,0.1223755,1.1373444,0.242157,1.6757507,0.3670959l0.7651062,0.1816254 c0.5358276,0.1326599,1.072937,0.2756348,1.6087646,0.4224701l0.7303314,0.2048035 c0.5641632,0.1648712,1.1270447,0.3426208,1.6899261,0.525528l0.6118164,0.198349 c0.7213135,0.2460175,1.4426117,0.5087891,2.1562042,0.7895813c0.8565521,0.3361816,1.6061859,0.6569061,2.348114,0.9982452 l0.4881592,0.2369995c0.559021,0.2640533,1.1141663,0.5358276,1.6590118,0.8230591 c0.1816254,0.0953217,0.359375,0.1957855,0.5371246,0.2975464l0.2060852,0.115921 c0.4533997,0.2498779,0.9106445,0.5074921,1.3588867,0.7805481c0.2099609,0.1275177,0.8024597,0.5049286,0.8024597,0.5049286 c0.4199066,0.2679138,0.833374,0.5422668,1.241684,0.8269196c0.2717743,0.1867676,0.5461273,0.3851318,0.8204803,0.5873566 c0.3877106,0.283371,0.7767029,0.5834808,1.1618195,0.8900452c0.2653503,0.2112427,0.5332642,0.4263458,0.7960205,0.6478882 c0.3799744,0.3207245,0.7547913,0.6569061,1.1257629,0.9969482l0.1790314,0.1635742 c0.1880493,0.1713104,0.3773956,0.3439178,0.5641632,0.5242462c0.3864136,0.3735352,0.7651062,0.7702484,1.1412201,1.1682587 l0.2202606,0.2292786c0.1390991,0.1429749,0.2782135,0.2872314,0.4134521,0.4379272 c0.483017,0.5384064,0.950592,1.0987091,1.4091339,1.6731873c0.1378174,0.1622925,0.2035065,0.24086,0.2679138,0.3220062 c0.5177917,0.6659241,1.040741,1.3885193,1.5508118,2.1471863c0.1094818,0.1609955,0.2163849,0.3323059,0.3220062,0.5036163 l0.1622925,0.2576141c0.3284607,0.5126495,0.6556244,1.0291595,0.9673309,1.5701294 c0.1287994,0.2228394,0.2524567,0.4533997,0.3761139,0.68396l0.158432,0.2936707 c0.274353,0.5023499,0.5409851,1.0085449,0.798584,1.5302124c0.1816254,0.3683777,0.3542175,0.7444916,0.5242462,1.1206055 c0.2344208,0.5113525,0.4675598,1.039444,0.6916809,1.5817261c0.1622925,0.3928528,0.3194275,0.7921448,0.4752808,1.199173 c0.2125397,0.556427,0.4147644,1.1257477,0.6118317,1.7028046c0.1416779,0.4134521,0.282074,0.8294983,0.4160309,1.2571259 c0.1906433,0.6131134,0.3683929,1.2442627,0.5435638,1.8805542l0.0888824,0.3194427 c0.0862885,0.3117065,0.1738739,0.6221313,0.2537384,0.9441376c0.1790466,0.7148743,0.3400421,1.4606476,0.4984741,2.2089996 l0.0888824,0.4057465c0.0528107,0.2369995,0.1056213,0.4727173,0.1519928,0.7174377 c0.2357025,1.2210693,0.4289093,2.3777466,0.58992,3.5292664c0.2357178,1.6821899,0.4302063,3.3296051,0.6105347,4.9628448 l0.032196,0.5834961c0.5899353,9.8072052,0.9286957,44.5562286-19.445694,80.4232788l-0.0528107,0.1120605 c0.0025787,0,0.0064392,0.0012817,0.0090179,0.0012817c0.2550354-0.4366455,0.5242462-0.873291,0.7934418-1.3099365 l0.2911072-0.4701385c0.5049133-0.8166351,1.0046692-1.6306763,1.4941254-2.4408569 c2.4447327-4.0393372,4.7915497-8.1482086,6.9760895-12.2184448l0.1094818-0.2035217 c1.2532654-2.3390961,2.4923706-4.738739,3.6670837-7.1035919l0.0811462-0.16745 c1.2532654-2.5245819,2.4678955-5.0774841,3.6091156-7.5879059l0.0154572-0.0437927l0.0669708-0.1339569 c9.0189362-19.8514252,13.109787-35.8219604,14.9465332-45.7103271c1.0252991-5.5167084-0.2112274-12.2377625-1.2043152-17.6372681 c-1.3408661-7.2826385-1.4593658-9.3512421-0.6079712-10.5710297l0.4276428-0.6143951l0.7264557-0.1764679 c0.2279816-0.0553894,0.4379425-0.082428,0.6401672-0.082428h0.6607666l0.6195526,0.4224701 c1.4825439,1.1077271,1.7208252,4.0715332,1.7465973,4.4850006l0.0180206-0.0386505 c0.1764679-1.0033875,1.6229553-9.2134094,2.7435608-13.7267456c0.4070129-1.6383972,1.156662-2.7590027,2.2296143-3.3334656 c0.5396881-0.2885284,1.1515045-0.434082,1.8187256-0.434082c0.1725922,0,0.3387604,0.0102997,0.4920349,0.0257568 l0.9750519,0.1030426l0.7187347-0.6195526c0.3645172-0.3129883,0.9969482-0.6878052,1.9436646-0.6878052 c0.2202606,0,0.4675598,0.0205994,0.7444916,0.07341c1.2957764,0.2498779,2.1690826,1.4439087,2.3274994,3.1428528 l1.7427368,0.3091278c0.6311493,0.1107635,1.1399231,0.3516388,1.5546722,0.7354736 C215.6601868,140.9315338,215.6460114,143.3479156,215.3922729,145.1524658z M108.8692245,222.6170959 c7.1319351,0,13.8684387-4.1822968,20.1451035-12.432251l0.0154572-0.001297v-1.9662018l0,0l-0.0038605,1.9662018 L89.82798,211.8799133c0.3220139,0.4353638,8.0065155,10.6624756,19.037384,10.7371826 C108.8666458,222.6170959,108.8679352,222.6170959,108.8692245,222.6170959z M132.7161865,201.2045593 c4.147522-2.2399292,4.2016144-5.8735199,2.9869843-8.3053589c-0.7316132-1.4606476-3.0552521-3.7817078-6.1774902-3.7817078 c-0.1803284,0-0.3619385,0.0077209-0.5474091,0.0244751c-1.075531,0.0953064-6.4351044,0.8642731-6.2715225,6.686264 c0.1313782,4.6060638,3.5756302,6.2406006,6.4853287,6.2406006c0.001297,0,0.001297,0,0.001297,0 C130.4517975,202.0688324,131.6702881,201.7700043,132.7161865,201.2045593z M138.1903992,162.7688141 c-1.1347656-1.0021057-2.9889221-2.0843964-5.2771454-2.6324615 C135.6886902,160.8148346,137.5608673,162.2355652,138.1903992,162.7688141z M83.0026016,161.6852417 c-2.1201324,0.6990814-3.8590012,1.8528595-5.0166321,2.9782867 C78.7662048,163.9325714,80.508934,162.5157166,83.0026016,161.6852417z M86.9208527,161.0289764 c-0.1571426,0-0.3052673,0.0231934-0.4601593,0.0293121c0.1552124-0.0061188,0.3065567-0.0190125,0.4653091-0.0190125 c2.810524,0,5.6094589,0.9647522,8.3182297,2.8672028C92.5251541,161.9963074,89.7249374,161.0289764,86.9208527,161.0289764z M81.4994431,197.2231903c0.1313858,4.6060638,3.5756302,6.2406006,6.4853363,6.2406006 c1.2597122,0,2.4782104-0.2988281,3.5241089-0.8642731c4.1475143-2.2386322,4.2016144-5.8722229,2.9869843-8.3040619 c-0.7316132-1.4619446-3.0539703-3.781723-6.1749115-3.781723c-0.1803284,0-0.3645172,0.0077362-0.5499954,0.0244751 C86.6941528,190.6335297,81.3358612,191.3999176,81.4994431,197.2231903z M85.1005096,161.1800079 c0.1996536-0.029953,0.404129-0.0534668,0.6102142-0.0740662 C85.5049591,161.1268768,85.3017731,161.1494141,85.1005096,161.1800079z M83.4849777,161.5367889 c0.2463379-0.0714874,0.4975052-0.1374969,0.7570496-0.1954651 C83.9840927,161.3986511,83.7338943,161.4649811,83.4849777,161.5367889z M109.8661728,232.3818054 c-0.0734177,0-0.1468353,0-0.220253-0.0012817c0.0862961,0.0012817,0.1725998,0.0025787,0.2588959,0.0025787 c2.1446075,0,4.2003326-0.5525818,6.116951-1.6422729C114.1051483,231.8305206,112.0365372,232.3818054,109.8661728,232.3818054z" fill="#ff7915"/></g><g id="change4_1"><path d="M96.6520691,406.1217346c-1.0162735,0-1.8805542-0.7779541-1.9681396-1.8084106 c-0.0940323-1.0896912,0.7122879-2.0480042,1.8006897-2.1407471c7.6986771-0.6620483,39.2377625-6.273407,39.6396332-6.3442383 c1.0729523-0.1854858,2.1033936,0.524231,2.2940216,1.6010437c0.191925,1.075531-0.525528,2.1021118-1.6010437,2.2940369 c-1.6474152,0.2936707-32.117424,5.7130737-39.9925613,6.3905945 C96.7667084,406.1191711,96.7087402,406.1217346,96.6520691,406.1217346z M91.5333557,392.4825745 c-1.0098267,0-1.8728256-0.7702332-1.9681396-1.796814c-0.0991821-1.0884094,0.7006989-2.0518799,1.7891006-2.1523438 c24.825882-2.2888489,46.7394791-4.9757385,46.9571609-5.0027771c1.074234-0.1210938,2.0724792,0.6375732,2.2051392,1.7221069 c0.1339569,1.0845642-0.6362915,2.0724792-1.7208405,2.2064514c-0.2189636,0.0257568-22.1892319,2.7203674-47.0782242,5.0156555 C91.6557236,392.480011,91.593895,392.4825745,91.5333557,392.4825745z M108.852478,374.7216492 c-8.222908,0-16.3505096-0.2730408-23.121788-1.0265503c-1.0858231-0.1210938-1.8689575-1.1000061-1.7478867-2.1858215 c0.1223679-1.0858459,1.1025772-1.8638306,2.1858215-1.7478943c23.96418,2.6714172,65.5527496-0.8153381,65.972641-0.8488159 c1.0768127-0.1004944,2.0441437,0.713562,2.1381683,1.8032532c0.0927429,1.0884094-0.7135773,2.0454407-1.8032684,2.1381531 C152.1721802,372.8810425,130.2070618,374.7216492,108.852478,374.7216492z M129.4703064,360.4693909 c-16.6377487,0-37.4616547-0.3323364-48.5118408-1.791687c-1.083252-0.1429749-1.8457794-1.1373596-1.7028046-2.2205811 c0.1429749-1.083252,1.1502304-1.8432007,2.2206039-1.7028198c19.5191116,2.5786743,72.1050491,1.5418091,72.6357193,1.5302124 c0.0128784,0,0.0270538,0,0.0412292,0c1.072937,0,1.955246,0.8591309,1.9771576,1.9385071 c0.0218964,1.0922546-0.8462524,1.9951782-1.9385223,2.0183716 C153.232254,360.2607117,142.6676636,360.4693909,129.4703064,360.4693909z M79.3677216,353.7741089 c-0.9827805,0-1.8354721-0.7316284-1.9604111-1.7324219c-0.1365356-1.0845642,0.632431-2.0724792,1.7169724-2.2090149 c19.1610336-2.4035034,76.8309021-12.8251343,77.4118195-12.9294434c1.0677948-0.1970825,2.1033783,0.5177917,2.2978821,1.5946045 c0.1944885,1.0742188-0.5190887,2.103363-1.5946045,2.2978821c-0.5809174,0.1056213-58.3564072,10.5465393-77.6230621,12.9629211 C79.5325928,353.7689514,79.4501572,353.7741089,79.3677216,353.7741089z M75.0540466,343.8664246 c-0.9892273,0-1.8444901-0.7406311-1.9629898-1.7478943c-0.1262283-1.0858154,0.6491776-2.0686035,1.7350006-2.1961365 c20.6435852-2.4215088,82.0938797-8.8475952,82.7121506-8.9120178c1.114151-0.1030273,2.0595856,0.676239,2.1742249,1.7620544 c0.1133423,1.0871277-0.6762238,2.0596008-1.7620544,2.1742249c-0.6182709,0.0644226-62.0440903,6.4866333-82.6632004,8.9068909 C75.2086105,343.8625488,75.1313248,343.8664246,75.0540466,343.8664246z M66.9419022,323.4057312 c-1.0497589,0-1.9243469-0.8243408-1.9745789-1.8843994c-0.0528107-1.0909729,0.790863-2.0183716,1.8818436-2.0699158 c42.041954-2.0003357,93.3965149-11.3026428,93.9104462-11.3966675c1.0819702-0.1983643,2.1059723,0.5152283,2.3017426,1.5907593 c0.1957855,1.0755005-0.5164948,2.105957-1.5907288,2.3017273c-0.51651,0.0940247-52.1312637,9.4427185-94.4334106,11.4559326 C67.0050201,323.4044495,66.9728165,323.4057312,66.9419022,323.4057312z M143.6465759,287.582489 c-39.7569504,0-88.5006409-1.7388611-89.0841217-1.759491c-1.0922661-0.039917-1.9462433-0.9570007-1.906311-2.0479736 c0.0386391-1.0922852,0.9402771-1.993927,2.0479965-1.9063416c0.6981239,0.0244751,70.2682953,2.510437,110.8444519,1.5289307 c1.0574951,0.0090027,1.9977722,0.8385315,2.0261078,1.9307861c0.0257568,1.0922546-0.8385162,1.999054-1.9307861,2.0260925 C158.9524841,287.5155029,151.4701996,287.582489,143.6465759,287.582489z M156.8877411,269.8035278 c-14.2806091,0-88.7981873-0.1738892-107.8020782-3.7662659c-1.074234-0.2022095-1.7800865-1.237793-1.5765724-2.3107605 c0.2035103-1.0742188,1.2494087-1.7878113,2.3107605-1.5765686c20.2352715,3.8242188,108.4435272,3.7005615,109.3142395,3.6954041 c0.001297,0,0.0025787,0,0.0038605,0c1.0909882,0,1.9758759,0.883606,1.9784546,1.9746094 c0.0025787,1.0922546-0.8823242,1.9797058-1.9745789,1.9822998 C158.8597412,269.8022461,158.0856171,269.8035278,156.8877411,269.8035278z M47.8697433,259.0418701 c-1.0111198,0-1.8741112-0.7715454-1.9681396-1.7981262c-0.0991821-1.0883789,0.7019844-2.0505676,1.79039-2.1510315 c36.8485413-3.3682556,120.9889297-16.6946869,121.8892746-16.8312225 c1.0948486-0.1648712,2.0892181,0.5757599,2.2540894,1.6564331s-0.5770416,2.0892181-1.6564331,2.2540894 c-0.9029236,0.1378174-85.1592407,13.4822845-122.1262817,16.8621368 C47.9908218,259.0393066,47.9302826,259.0418701,47.8697433,259.0418701z M45.4456329,246.2695618 c-1.0059662,0-1.8663864-0.7638092-1.9668541-1.7865295c-0.1056175-1.0871124,0.6903954-2.0544281,1.7775116-2.1613464 c28.0575981-2.7332306,125.0321198-10.6717529,126.063858-10.7554779c1.0780945-0.0695496,2.0428467,0.723877,2.1304321,1.8135681 c0.0875854,1.0884094-0.723877,2.0428467-1.8135681,2.1304321c-1.0304413,0.083725-97.9727707,8.0196686-125.9968796,10.7503357 C45.5744362,246.266983,45.5100365,246.2695618,45.4456329,246.2695618z M35.3460312,190.5948792 c-1.0008163,0-1.8599434-0.75737-1.9655647-1.7762146c-0.1120605-1.0858307,0.6788025-2.0583038,1.7659187-2.1703644 c78.5259781-8.0902405,146.1447449-7.7180023,146.8235474-7.7205811c1.0922699,0.0077362,1.9720001,0.8990631,1.9642792,1.9926147 c-0.0077362,1.0871124-0.8913422,1.9642792-1.9784546,1.9642792c-0.041214,0.0012817-0.5538635-0.0038605-1.7002258-0.0038605 c-10.9200897,0-73.2784576,0.3439026-144.7047119,7.7038269C35.482563,190.5910187,35.414299,190.5948792,35.3460312,190.5948792z M36.026123,173.8231812c-1.083252,0-1.9655647-0.8707275-1.978447-1.956543 c-0.0115929-1.0922699,0.8642807-1.9874725,1.9565506-2.000351c50.778801-0.5693207,143.7953491-2.2296143,144.729187-2.2463531 c0.0115967,0,0.0231781,0,0.0360565,0c1.075531,0,1.95784,0.8629913,1.9771576,1.9436646 c0.0193329,1.0922699-0.8501129,1.9938965-1.9436646,2.0132294c-0.9325409,0.0167389-93.9619751,1.6770325-144.7549438,2.2463531 C36.0402908,173.8231812,36.0325623,173.8231812,36.026123,173.8231812z M179.4865723,164.8957062 c-0.3426208,0-0.6891022-0.0888824-1.0046692-0.27565c-0.2434387-0.1390991-26.3019867-14.5343475-130.7731628-13.6597595 c-0.0051498,0-0.0103035,0-0.0154572,0c-1.0858269,0-1.969429-0.874588-1.9784431-1.9629974 c-0.0090179-1.0922699,0.8694344-1.9848785,1.962986-1.9938965 c106.1005554-0.8307953,131.7752686,13.5940857,132.8160095,14.2110596 c0.9415588,0.5551453,1.2532654,1.7684937,0.6968384,2.7087708 C180.8222809,164.5492249,180.1628113,164.8957062,179.4865723,164.8957062z" fill="#171017" opacity=".2"/></g><g id="change5_1"><path d="M83.3724365,209.7014008c2.6402054,5.2845764,1.7800674,12.5804901-5.8267059,16.6872101 s-19.4096336,0.7565308-19.7360077-10.7821045c-0.2794991-9.8814545,7.811882-12.9024506,12.328186-13.3004913 C76.6177139,201.7349091,81.6784897,206.3108521,83.3724365,209.7014008z M145.8966522,200.8639221 c-4.5163116,0.398056-12.6076813,3.4190369-12.328186,13.3005066c0.3263702,11.53862,12.1292419,14.8888092,19.7360077,10.7821045 c7.606781-4.10672,8.4669037-11.4026489,5.8267059-16.6872101 C157.4372406,204.8687744,152.3764496,200.2928162,145.8966522,200.8639221z" fill="#ffc127" opacity=".7"/></g><g id="change4_2"><path d="M79.5226135,197.2789001c-0.1832275-6.4721375,5.1164551-8.4508972,8.0744629-8.7114105 c4.2441254-0.374176,7.5589218,2.6231232,8.6685791,4.8437195c1.7292023,3.4613037,1.1656876,8.239975-3.8164978,10.9297485 C87.46698,207.0307312,79.7364273,204.8365326,79.5226135,197.2789001z M128.8043823,187.1715698 c-2.9583359,0.2608337-8.2580185,2.2395935-8.074791,8.711731c0.2138138,7.557312,7.9443741,9.7518158,12.9265518,7.0620575 c4.9824982-2.690094,5.5457001-7.4687653,3.8164978-10.9297638 C136.3629761,189.7946777,133.0485077,186.7977142,128.8043823,187.1715698z M94.1262054,165.5384369 c0.8913269,0.6259918,2.1265717,0.4160461,2.756424-0.4791565c0.6285706-0.8926086,0.4147491-2.1265717-0.4791565-2.756424 c-9.1631851-6.453125-17.2946472-1.8676758-20.3138351,1.4593658c-0.7316132,0.8063202-0.6697922,2.0492859,0.1326675,2.7847595 c0.378685,0.3464813,0.8565521,0.517807,1.3344193,0.517807c0.5345383,0,1.0677948-0.2151184,1.4580765-0.6375885 C79.2775574,166.1425323,85.5709763,159.5142365,94.1262054,165.5384369z M119.5523148,161.4617615 c-0.8810272,0.6478882-1.0690842,1.8857117-0.421196,2.7654419c0.3877029,0.5281067,0.9866486,0.8063202,1.5946121,0.8063202 c0.4070206,0,0.8179092-0.124939,1.1708374-0.3851318c8.4818039-6.2380219,14.8628006-0.5190735,15.1564865-0.2472992 c0.7921448,0.7444916,2.0389862,0.7084351,2.7911987-0.082428c0.7509308-0.7934418,0.716156-2.0454254-0.0772858-2.7976532 C136.6962585,158.6164551,128.5184326,154.8656616,119.5523148,161.4617615z M130.7673645,209.267746 c0.3554993,0.6800842,0.2859497,1.5044403-0.1790314,2.114975c-6.6708145,8.769043-13.9392853,13.2141113-21.6018982,13.2141113 c-0.0450821,0-0.0888748-0.0012817-0.1339569-0.0012817c-12.0007629-0.0811462-20.2687531-11.0708008-20.615242-11.5396423 c-0.4353638-0.5873566-0.5100632-1.3679199-0.1944962-2.0286865c0.3142853-0.6594849,0.9686127-1.0922699,1.7002258-1.1244659 l39.1863556-1.6950684C129.7150269,208.1690369,130.4118652,208.5876617,130.7673645,209.267746z M124.6375351,212.3539124 l-30.5074692,1.3202515c3.0333557,2.916153,8.3671722,6.9309998,14.7713623,6.9644928 c0.0270462,0.0012817,0.0553818,0.0012817,0.0824356,0.0012817 C114.3460159,220.6399384,119.5973969,217.8564606,124.6375351,212.3539124z M115.3558426,228.8370972 c-5.3312378,3.2536163-10.3662262,0.4521027-10.6019363,0.3181458c-0.9389877-0.5500031-2.148468-0.233139-2.7010422,0.7058563 c-0.5538635,0.9415588-0.2395782,2.1549072,0.7019882,2.7087708c0.1880569,0.1107635,3.1170807,1.7916718,7.1499634,1.7916718 c2.2540894,0,4.85466-0.525528,7.5119095-2.1471863c0.9325485-0.5680237,1.2275162-1.7865143,0.6581955-2.7190704 C117.5056,228.5627441,116.2883911,228.2677765,115.3558426,228.8370972z M217.3513947,145.4281158 c-1.0987091,7.8004303-5.7627411,31.9204559-7.3109741,38.9441986 c-10.6579742,48.3260345-33.5128174,83.6620789-41.2073059,94.5779724 c-2.6910553,13.9202881-5.0279083,27.4351501-7.4913025,43.4440002 c-1.9494629,12.8206177-3.9836121,26.9801636-6.0937653,42.4274292c-0.1858063,1.3627625-0.3909149,2.7087708-0.6044159,4.0460815 c-0.0637512,0.3986511-0.129776,0.7927856-0.1954651,1.1872559c-0.1693726,1.0149841-0.3471222,2.0209656-0.5319672,3.0188599 c-0.0643921,0.348114-0.1262207,0.7026367-0.1925507,1.0471802c-0.2292786,1.1950073-0.471756,2.3735657-0.7232513,3.5398865 c-0.1107635,0.5139465-0.2266846,1.0162964-0.3413239,1.5215149c-0.1523132,0.6733398-0.3088074,1.3399048-0.4685364,2.0022888 c-0.0930634,0.3860779-0.1777496,0.7850647-0.2733917,1.1672974c-0.0064392,0.025116-0.0228577,0.0437927-0.0299377,0.0682678 c-0.0202942,0.0801697-0.0392914,0.1625977-0.0595703,0.2424622c0.1291199,0.4781799,0.2524567,0.940918,0.3844757,1.4281311 c5.8335876,21.5143127,14.62323,53.9203491-14.2909088,95.2229614c0.8539734,1.242981,2.0930786,3.3193054,2.8556061,5.8194275 c1.715683,5.6261902,0.2666168,10.6045227-4.1913147,14.3952332C136.2235413,499.8364258,135.7675781,500,135.3038788,500 c-0.1841888,0-0.3696747-0.0257568-0.5512848-0.0785828c-0.3683777-0.1069031-9.1361389-2.822113-19.352951-20.8058777 c-0.4521103-0.7973022-0.296257-1.8032532,0.3748169-2.427948c0.2891693-0.2692261,24.884491-23.730072,22.611084-62.6269531 c-0.0563507,0.0785828-0.1127014,0.1564941-0.1690674,0.2347412c-0.0270386,0.0376892-0.0544128,0.0756836-0.0814667,0.1130371 c-0.3896332,0.5400085-0.7847443,1.0597534-1.181778,1.5698242c-0.1188202,0.1516724-0.2369995,0.3039551-0.3561554,0.4527283 c-0.3004303,0.3770752-0.603775,0.7403259-0.9080658,1.1000061c-0.2215424,0.260498-0.4431,0.5206909-0.6662445,0.7718506 c-0.2035217,0.2302551-0.4086304,0.4521179-0.6134338,0.6743164c-0.3188019,0.3439026-0.6382294,0.6842651-0.9599304,1.0091858 c-0.1165619,0.1178589-0.2337799,0.2315063-0.3506622,0.3471375c-0.3748169,0.370636-0.7509308,0.730957-1.1299438,1.0751953 c-0.0228577,0.0205994-0.0454102,0.039917-0.0682678,0.0605164c-0.0428314,0.0383301-0.0856476,0.0756836-0.128479,0.113678 c-0.1188202,0.1053162-0.2379761,0.2112427-0.3567963,0.3155823c-0.2350616,0.2063904-0.470459,0.4118347-0.7048798,0.6063538 c-0.4402008,0.3648376-0.8778076,0.7035828-1.3134918,1.0259094c-0.0267334,0.0196533-0.0534515,0.0389709-0.0801849,0.0589294 c-0.8491364,0.6227722-1.6895981,1.1747131-2.5139465,1.6377563c-0.2273407,0.127533-0.4527512,0.2205811-0.679451,0.3374939 c-0.0264053,0.0138245-0.0521622,0.0302429-0.0785675,0.0437927c-0.0734177,0.0379944-0.1468353,0.0689087-0.2202606,0.10495 c-0.9727936,0.4826965-1.9417343,0.9016418-2.8984299,1.1985474c-0.0099869,0.0028992-0.0202866,0.0064392-0.0302734,0.0096436 c-0.4846268,0.1507263-0.9676437,0.2772522-1.44841,0.3793335c-0.024147,0.0051575-0.0479813,0.0083923-0.0721283,0.0135498 c-0.4105682,0.0849915-0.8188782,0.1468201-1.2255783,0.1957703c-0.1120605,0.0135193-0.2244492,0.0270386-0.3365097,0.0373535 c-0.4128189,0.039917-0.824028,0.0653687-1.2320175,0.0669861c-0.0189972,0.0003052-0.0379944,0.0032043-0.0566711,0.0032043 c-1.2835464,0-2.5403595-0.1906128-3.7582092-0.5783386c-0.4038086-0.1287842-0.803421-0.2785339-1.1982117-0.4508057 c-10.3166351-4.5075378-16.5923386-15.3651428-21.4028854-28.2372742 c-0.2701645,0.4672241-0.5332489,0.9322205-0.7824936,1.3930054c-0.0028915,0.0051575-0.0074005,0.0090332-0.0102997,0.0141907 c-4.3916092,8.1163025-5.5183334,15.2228088-3.3077164,21.2128906 c5.1431885,13.9354248,26.8545609,17.6784973,27.0735321,17.7145691c1.0252838,0.1700134,1.7465897,1.1064148,1.6474152,2.1419983 c-1.9423828,20.272644-7.3431778,28.8020935-7.5724487,29.156311c-0.3709564,0.5718994-1.0021057,0.9016418-1.6602936,0.9016418 c-0.1841965,0-0.3709641-0.0257568-0.5538635-0.0785828c-9.7621307-2.8478699-10.6161118-12.0690308-9.5367279-17.7583313 c-18.5440598-8.729126-28.9231644-19.8475647-30.8565292-33.0629578 c-2.8639793-19.5706482,13.6565552-37.269104,18.9800644-42.4016418c-0.0959625-0.3326416-0.1919174-0.6656189-0.2878799-0.9979248 c-2.8272705-9.7981873-5.7485657-19.9287109-9.539299-28.2263489 c-8.0937881-17.7145386-19.7081337-49.4569397-27.1611137-79.4240723 c-0.8121147-1.1061096-1.6441956-2.2711487-2.4955978-3.4941406 c-12.2081413-16.3005981-26.7054672-41.6919403-36.5799828-78.5775146 c-1.7736454-6.6282959-7.6999645-31.6473846-9.2404728-39.5714722c-0.5937911-3.0501099-0.2498817-5.180542,1.0497609-6.5098114 c0.9132277-0.9351196,2.073761-1.2378082,3.0990491-1.2944946c0.4018717-1.4245758,1.3769255-2.8929596,3.4171972-3.4197693 c1.754324-0.4533844,3.1454182-0.0386353,4.1230488,0.6066742c0.9699011-0.4727173,2.2875767-0.8501129,3.6748066-0.4521027 c1.1347723,0.3271637,2.6649771,1.2931976,3.5009203,4.0431824c0.7702541,2.5271606,1.7594776,6.57164,2.5323067,9.87677 c0.7303257-0.7058411,1.6422653-1.190155,2.7680206-1.1450653c1.1850052,0.030899,2.1896858,0.4997559,2.9071293,1.3537292 c1.8792648,2.2360535,1.2519855,6.4801788,0.3838387,12.3549805c-0.820488,5.5514984-1.7504597,11.8436279-0.5590134,16.8013306 c1.4632244,6.0892487,4.0615444,14.9941864,8.5449257,25.9200745c-3.6042862-18.37146-5.0317688-38.3690796,6.8614426-53.6724091 c7.4864693-9.6333313,19.3806458-16.3707886,35.978138-20.3280029c-0.6604462-1.2748566-1.3585663-2.9019775-1.6709213-4.5609894 c-0.8243484-4.396759,1.2439346-7.1467438,4.6962357-9.0414658c-0.5966949-1.1476517-1.2790375-2.4917374-2.053154-4.0824738 c-0.0235062-0.0483017-0.0244751-0.1007919-0.0437927-0.1500626c-7.5-15.5287323-22.2681351-51.3674393-26.8107681-100.5716019 c-0.0592499-0.6362972,0.1919212-1.2610016,0.6762276-1.6783295c0.1777496-0.1545668,4.4476357-3.7997484,11.1377678-5.6339321 c0.5422668-0.1519899,1.1257553-0.0592504,1.599762,0.2473059c0.4727097,0.3078442,0.7934341,0.8024554,0.8784485,1.3601809 c0.0608597,0.3957534,3.4815979,22.1786156,10.8479614,47.3409996 c-1.1318741-11.7676277-1.4358597-23.9036369-0.2524643-35.4175186c0.0541-0.5255241,0.316864-1.008543,0.7290421-1.339571 c0.4121704-0.3323174,0.9351196-0.4855957,1.4657974-0.423769l4.85112,0.5583706 c0.099823-5.3553915,0.3538895-10.7742186,0.7969818-16.2184849c0.0476608-0.5783346,0.346489-1.1064352,0.8166275-1.4451923 c0.4714203-0.3400452,1.0665054-0.4521056,1.6306686-0.3142842l9.885788,2.4498715 c0.8346558,0.2060881,1.4387512,0.9273961,1.4980011,1.7839494c0.028656,0.4105663,1.756897,24.5219002,6.6228333,52.7057266 c0.8462448-14.0126991,1.5037918-28.9547272,1.669632-43.1767349c0.0064392-0.5422688,0.2344284-1.0574894,0.632431-1.4258718 c0.3980103-0.3696699,0.9235306-0.5590134,1.4683762-0.5255241l12.2158737,0.7599497 c1.0433197,0.0644026,1.8560791,0.9299726,1.8560791,1.9745808c0,0.2588987-0.0090179,11.4945602-0.3316727,27.5752239 c2.6878357-13.6333675,4.0686264-23.3690948,4.1030807-23.6170464c0.1313858-0.942852,0.915802-1.659008,1.8663788-1.7028008 l6.9361572-0.3258781c1.0162659-0.0347767,1.9333649,0.7110043,2.0570221,1.7401562 c4.317215,35.8792801-6.3304443,76.3408051-11.2649689,92.5183945c-0.012558,0.053772-0.0177155,0.1072235-0.0351028,0.1606827 c0,0,0,0,0,0.0012894l-0.2466583,0.7551193c-0.2672729,0.8649216-0.5139313,1.6470947-0.7380524,2.3465042 c1.7810516,0.9177322,3.2036972,2.2202759,4.2331772,3.9105225c0.2350616,0.3860855,0.4337463,0.782486,0.616333,1.1824265 c0.0041809,0.0086975,0.0122375,0.0141678,0.016098,0.0231857c0.0405731,0.0891953,0.0714874,0.1800003,0.1094818,0.2698441 c0.0817871,0.1922455,0.1642303,0.3844833,0.2350769,0.5786591c0.0392761,0.107872,0.0718079,0.2160721,0.1078644,0.3239441 c0.0689087,0.2054443,0.1394348,0.4105682,0.197403,0.6166534c0.016098,0.0582809,0.0280151,0.1165695,0.0434723,0.1748505 c0.0434723,0.1623001,0.0843658,0.3245926,0.1213989,0.4865646c0.0106201,0.045723,0.0244598,0.0914536,0.0341339,0.1365356 c0.1326599,0.6053772,0.2212219,1.2033539,0.2798157,1.785881c0.0038757,0.0399246,0.0099945,0.0804977,0.013855,0.1197891 c0.0212555,0.2276611,0.0347748,0.4498444,0.0470123,0.6710739c0.00354,0.0689087,0.0096588,0.1397476,0.012558,0.2080154 c0.0093384,0.2096329,0.012558,0.4137878,0.0144958,0.6160126c0.0009613,0.0743866,0.0032196,0.1507034,0.0028992,0.2241211 c0,0.1932068-0.0041962,0.3802948-0.0096741,0.5651321c-0.002243,0.0766373-0.0041809,0.1542435-0.0070801,0.2292709 c-0.0074005,0.1764603-0.0170593,0.3474503-0.0283356,0.5145798c-0.0048218,0.0750275-0.0099792,0.1500549-0.0154572,0.2228317 c-0.0099792,0.12397-0.0193176,0.245369-0.0305939,0.362587c20.3576355,0.9824524,43.9186554,7.1058502,50.0191803,38.1095428 c0.2501984,1.27034,0.470459,2.5818939,0.6604462,3.9369202c0.2398987,1.7127838,0.4373016,3.3907928,0.6185913,5.0559235 c0.0012817,0.0099792,0.0048218,0.0189972,0.0061188,0.0292969c0.0032196,0.0276947,0.0045013,0.0544281,0.0077209,0.0821228 c0.1432953,1.3244324,0.2534332,2.6208496,0.3619385,3.9159851c0.043808,0.525528,0.0988617,1.0600739,0.1371918,1.5807648 c0.0540924,0.7338715,0.0885468,1.4513092,0.1281586,2.1726227c0.0231781,0.424408,0.0534515,0.8552551,0.0753479,1.2783813 c0.0006409,0.0090179,0.0012817,0.0186768,0.0016022,0.0276947c0.0312347,0.6053772,0.0705261,1.2178497,0.0940399,1.816803 c0.0003204,0.0032196,0.0003204,0.0061035,0.0003204,0.0093384c0.0434723,1.0945129,0.0650482,2.1687469,0.0850067,3.2423401 c0,0.0086975,0.0006409,0.0177002,0.0006409,0.0263977c0.0112762,0.6137543,0.0276947,1.2323456,0.0318756,1.8393402 c0,0.0038605,0,0.0077209,0,0.0115967c0.0067749,1.0610199-0.0041809,2.1053162-0.0186768,3.1463776 c0,0.0074158,0,0.0151367-0.0003204,0.0228577c-0.0083618,0.5896149-0.0135193,1.1817932-0.028656,1.765274 c0,0.0041962-0.0003204,0.0083771-0.0003204,0.012558c-0.0270538,1.0442963-0.0679474,2.073761-0.1146393,3.0984192 c-0.0006409,0.0070801-0.0006409,0.0144806-0.0009613,0.0215607c-0.0254364,0.5532227-0.0499115,1.1077271-0.0808258,1.6557922 c-0.0003204,0.0057983-0.0006409,0.0112762-0.0009613,0.0167542c-0.0582886,1.0330048-0.1281586,2.0537872-0.2054443,3.0674896 c-0.0006561,0.0077209-0.0009766,0.0157776-0.0016174,0.0234985c-0.0392761,0.5132904-0.0788879,1.0262604-0.1226807,1.5350342 c-0.0892029,1.0388184-0.1877441,2.0673218-0.2949677,3.0868225c-0.0177155,0.1687317-0.0305939,0.3422852-0.0486298,0.510376 c4.8717346-13.0473022,7.3882599-23.5458679,8.6698761-30.4446716c0.9595947-5.1625061-0.2434387-11.6877594-1.2081909-16.9327087 c-1.2957764-7.0314636-2.3184967-12.5855408,2.0415497-13.6314392c1.191452-0.2859344,2.315918-0.1172028,3.2716522,0.4855957 c0.51651-2.6894379,1.1373444-5.7511444,1.6899261-7.9756012c0.5551453-2.2373505,1.6602936-3.7971649,3.2845306-4.6369781 c1.2777405-0.6633453,2.5696564-0.7032776,3.5240936-0.5821991c0.9364166-0.8256378,2.4138184-1.5044403,4.4193115-1.1180267 c2.0441284,0.3954315,3.1016235,1.915329,3.588501,3.3721161c1.1437836,0.1120605,2.1806641,0.5551453,2.989563,1.2996368 C217.2367554,139.6950073,217.8163757,142.1229706,217.3513947,145.4281158z M206.1762695,183.5196228 c1.4980011-6.7931824,6.1916504-31.0845184,7.2568665-38.6427917c0.2576141-1.832901,0.076004-3.2368774-0.4868774-3.7559509 c-0.154892-0.142334-0.353241-0.204483-0.5561218-0.2405548c-0.7109985,4.356842-2.0364075,10.8067474-2.0998383,11.1155548 c-0.1610107,0.7792664-0.8475342,1.316391-1.6139221,1.316391c-0.1094818,0-0.2215424-0.0102997-0.3336029-0.033493 c-0.8926239-0.1841888-1.4658051-1.0561981-1.2828979-1.947525c0.0167389-0.0782471,1.4886627-7.2433624,2.1606903-11.5196838 c-0.1194611-0.2576141-0.1861115-0.5400085-0.1861115-0.8314362c0,0-0.0695648-1.4271545-0.7354736-1.5559692 c-0.5335846-0.1007843-0.8465729,0.0099945-1.0317383,0.1703491c0.3104248,2.1781006-0.3458405,5.3669891-1.2648621,9.7515106 c-0.24086,1.1463623-0.4958954,2.3609924-0.749649,3.6374512c-0.1545563,0.7857056-0.8436737,1.3279724-1.6152191,1.3279724 c-0.1056061,0-0.2138062-0.0102997-0.3220062-0.032196c-0.8939056-0.1764679-1.473526-1.0446014-1.2957764-1.9372253 c0.2550354-1.2893372,0.5126495-2.515564,0.7547913-3.672226c0.6340485-3.0207977,1.3341064-6.3610382,1.3025513-8.0908966 c-0.3439178-0.0347748-0.7870026-0.0199585-1.1711578,0.184845c-0.6955566,0.3722382-1.0600739,1.3292542-1.242981,2.0660248 c-1.1643982,4.6897888-2.71521,13.5927887-2.7306671,13.6829529c-0.0328369,0.1893463-0.1139832,0.3551788-0.1957703,0.5197296 c0.2505188,1.0752106,0.9473572,2.1085358,1.7375793,3.2671509c1.3614655,1.9951782,3.0565338,4.4798279,2.8620453,8.0992584 c-0.0463715,0.8797302-0.7741241,1.5611115-1.6448517,1.5611115c-0.0296173,0-0.0592499-0.0012817-0.0888672-0.0025787 c-0.9093628-0.0489502-1.6074829-0.8256378-1.558548-1.7337189c0.1339569-2.506546-1.0458984-4.2363892-2.2940063-6.0667114 c-0.9892273-1.4487305-1.9939117-2.9444885-2.3065796-4.7867126c-0.2434387-0.313324-0.416687-0.6846008-0.4356842-1.1074066 c-0.0579681-1.1386414-0.4817352-2.6881561-0.9608917-3.0462341c-0.0257568-0.0193176-0.0631104-0.0502319-0.2640381-0.001297 c-0.5873566,0.842392,0.324585,5.7910767,0.9273834,9.0665894c1.0240021,5.5643768,2.3004608,12.4902191,1.2069092,18.372757 c-1.7749329,9.555069-5.8709259,25.8746643-15.1268616,46.2438965c-0.0006409,0.0009613-0.0009613,0.0016022-0.0012817,0.0025787 c-0.0009766,0.002243-0.0019379,0.0041809-0.0028992,0.0061188c-1.145401,2.5207062-2.3696899,5.1022797-3.6790009,7.7418213 c-0.0038605,0.0083771-0.0080414,0.0164185-0.0122375,0.0244751c-1.1895142,2.3983459-2.4488983,4.8430634-3.7823486,7.3312531 c0,0.0003204-0.0003357,0.0009766-0.0006561,0.001297c-0.00354,0.0067596-0.0070801,0.0131989-0.0102997,0.0196381 c-2.1677856,4.0444794-4.5319977,8.2026215-7.1068115,12.4586639c-0.4939728,0.815979-0.9969635,1.6358185-1.5063782,2.4588928 c-0.3738556,0.6040955-0.7419128,1.2055969-1.1244659,1.8135681c-0.2807922,0.4463196-0.7113342,0.7377319-1.1843719,0.8591309 c-0.0911255,0.0231934-0.183548,0.0357361-0.2769318,0.0457153c-0.0637512,0.0071106-0.1268616,0.0161133-0.1909485,0.0170898 c-0.0074005,0-0.0148163,0.0028992-0.0222168,0.0028992c-0.0302734,0-0.0595703-0.0090332-0.0898438-0.0103149 c-0.1020813-0.0045166-0.2038269-0.0141602-0.3033295-0.0344543c-0.0486298-0.0099792-0.0966034-0.025116-0.1445923-0.0386353 c-0.0856476-0.0244751-0.1693726-0.0531311-0.2508392-0.088562c-0.0531311-0.0234985-0.1056213-0.0502319-0.1574707-0.0785828 c-0.0354156-0.0193176-0.0727692-0.0315552-0.1075439-0.0534363c-0.0373535-0.0234985-0.0669861-0.0541077-0.1024017-0.0798645 c-0.0483093-0.0350952-0.0959625-0.0705261-0.1400757-0.1091614c-0.0695648-0.0608521-0.1336365-0.1281738-0.1948242-0.1993408 c-0.0228577-0.0263977-0.0511932-0.0463562-0.0727692-0.0740356c-0.0074158-0.0096741-0.0099792-0.0212708-0.017395-0.0309143 c-0.1043243-0.1397705-0.1877289-0.2904663-0.2505188-0.447937c-0.0131989-0.0328369-0.0222168-0.0669861-0.033493-0.1001282 c-0.0476532-0.1404114-0.0792084-0.284668-0.0946655-0.4308624c-0.0032196-0.0302734-0.0099945-0.0598907-0.0115967-0.0904846 c-0.0096588-0.1677704,0.0038605-0.3365021,0.0373535-0.5023499c0.0074005-0.0370178,0.0196381-0.0727692,0.0289764-0.1091614 c0.0367126-0.1397552,0.0895233-0.2756348,0.1577911-0.4070129c0.0119171-0.0231934,0.0148163-0.0492706,0.0276947-0.0721436 c20.1773071-35.4342499,19.8488464-69.7762451,19.2666473-79.4585266c-0.012558-0.2144623-0.0199585-0.3683777-0.0244751-0.4875183 c-0.1774292-1.6136169-0.3696594-3.2410583-0.6027985-4.9055481c-0.1655121-1.1808167-0.3596954-2.3204193-0.573822-3.431366 c-0.0718231-0.370636-0.1571503-0.7212982-0.2337952-1.0845337c-0.1532745-0.725174-0.3091278-1.4464874-0.483017-2.1417084 c-0.1036835-0.4144287-0.2186432-0.8127594-0.3297424-1.2168884c-0.1684113-0.6140747-0.3400421-1.2236481-0.5245514-1.8135681 c-0.128479-0.4102478-0.2640533-0.8095398-0.3999329-1.2085114c-0.1893463-0.555481-0.3841705-1.1019287-0.587677-1.635498 c-0.1487732-0.3893127-0.3004456-0.7734833-0.4566193-1.1515198c-0.2138214-0.517807-0.4360046-1.0227203-0.6636658-1.5198975 c-0.1632538-0.3567963-0.3262024-0.7142334-0.4962158-1.0607147c-0.2453766-0.4987946-0.5016937-0.9802094-0.7606049-1.457428 c-0.1700134-0.3130035-0.3361816-0.632431-0.5119934-0.9367371c-0.2965698-0.51297-0.6073151-1.003067-0.9196625-1.4906006 c-0.1542511-0.2405396-0.3014069-0.4920349-0.4595184-0.7264557c-0.4749756-0.7045593-0.9647522-1.3852997-1.4722443-2.0364075 c-0.0814667-0.1043243-0.1690521-0.1983643-0.2514954-0.3014069c-0.4347076-0.5454865-0.8777924-1.0771332-1.3347321-1.5855865 c-0.196106-0.2176819-0.4009094-0.4205475-0.6005554-0.6317902c-0.3554993-0.3761139-0.7119751-0.7499695-1.0793915-1.1051483 c-0.2305603-0.2231445-0.4675598-0.4347076-0.7026215-0.6498108c-0.3516388-0.321701-0.7052155-0.6401672-1.0665131-0.9444733 c-0.2485962-0.2093048-0.5007324-0.4115295-0.7535095-0.612793c-0.3635559-0.2898102-0.7309723-0.5728455-1.1032104-0.8462372 c-0.2566528-0.1887054-0.5149078-0.3748322-0.7754059-0.5558014c-0.3870697-0.2685547-0.7792664-0.5274506-1.1743774-0.7799072 c-0.2543945-0.1626129-0.5078125-0.3265228-0.7654266-0.4826965c-0.4269867-0.2585754-0.8604126-0.503952-1.2957764-0.7451477 c-0.2341003-0.1297607-0.4656372-0.2646942-0.7023163-0.3893127c-0.5206909-0.2749939-1.0494385-0.5332489-1.5810852-0.7850647 c-0.1577759-0.0750275-0.3126678-0.1568146-0.4714203-0.2295837c-0.7080994-0.3249207-1.4245911-0.6314697-2.1491089-0.9183807 c-0.0318756-0.012558-0.0647278-0.0231934-0.096283-0.0357513c-0.6846008-0.2691956-1.3759613-0.5216522-2.0731201-0.7589874 c-0.1925659-0.0656891-0.388031-0.1239624-0.5815582-0.1874084c-0.5425873-0.1774292-1.0871124-0.3500214-1.6358185-0.5097504 c-0.2321777-0.0676117-0.4659576-0.1297607-0.6994171-0.1944885c-0.5181122-0.1432953-1.0378418-0.2817535-1.5604706-0.4105682 c-0.2437592-0.0598907-0.4881744-0.1172028-0.7328949-0.1742096c-0.5232697-0.1220398-1.0484772-0.2376404-1.5752869-0.3461609 c-0.2366791-0.0489502-0.4733582-0.0972443-0.7106781-0.1432953c-0.554184-0.1078796-1.1099854-0.2080231-1.666748-0.3020477 c-0.2060852-0.0347748-0.41185-0.0714874-0.6182556-0.1043243c-0.6256714-0.1001587-1.2523041-0.1912842-1.8795929-0.27565 c-0.1378174-0.0186768-0.2749939-0.0399323-0.4128113-0.0576477c-2.3693695-0.3068695-4.7448578-0.5094147-7.0984497-0.6372528 c-0.0718079-0.0038605-0.1429749-0.0067596-0.2144623-0.0102997c-0.7016602-0.0370331-1.4013977-0.0679474-2.0979156-0.0927429 c-0.1342773-0.004837-0.2675934-0.0083771-0.4015503-0.0128784c-0.1130219-0.0035553-0.224762-0.0051575-0.3374634-0.0086975 c-0.5223083-0.0157776-1.0446014-0.0309143-1.5630493-0.0408936c-0.1529541-0.0032196-0.3052673-0.0057983-0.4575806-0.0080566 c-0.6176224-0.0102997-1.232338-0.0170593-1.8428726-0.0209351c-0.1465225-0.0006409-0.2930374-0.0016022-0.4392319-0.002243 c-0.4195786-0.001297-0.8340073,0.0003204-1.2494049,0.0012817c-1.1218948,0.0028992-2.2338028,0.0115967-3.3209152,0.0276947 c-0.3129959,0.004837-0.6201935,0.0102997-0.9299698,0.0157776c-1.0781021,0.0183563-2.1507263,0.0383148-3.1837387,0.0598907 l-0.7612381,0.0167542c-13.0917435,0.2682343-24.4613647,1.447113-34.1880722,3.5485687 c-16.8966446,3.6509857-28.8201256,10.0950928-36.0905266,19.4508514 c-13.8838921,17.8639679-7.8609695,43.7086945-3.0217667,64.4746399c0.2962532,1.2719574,0.5870323,2.5252228,0.8723335,3.7669067 c0.0048294,0.0202789,0.0093384,0.0405731,0.0138474,0.0608521c0.5654526,2.4621124,1.0961304,4.855957,1.5601501,7.1586609 c0.0199661,0.099823,0.0408974,0.200943,0.0608597,0.3004456c0.389637,1.9523621,0.7245293,3.834198,0.9879341,5.6345673 c0.0151367,0.1053009,0.0293045,0.2093201,0.0444374,0.3142853c0.0512009,0.3622742,0.1081963,0.7303314,0.1532784,1.0855103 c1.1566696,9.1248627,3.1537933,19.1607208,5.6648445,29.4461212c0.0634384,0.2595215,0.1294518,0.5203552,0.193531,0.7805481 c0.3204041,1.300293,0.6485329,2.6034851,0.9843903,3.9101868c0.0821152,0.3188171,0.1642265,0.6376038,0.2473068,0.9567261 c0.3101006,1.1943359,0.6259918,2.3893127,0.9480057,3.585907c0.0898399,0.3352356,0.1783943,0.6701355,0.2695236,1.0053406 c7.3232117,26.9804688,17.4211998,54.1876221,24.6690636,70.0518799c3.9118042,8.5629578,6.8756104,18.837738,9.7415237,28.7737732 c0.0270462,0.0940247,0.0540924,0.1880493,0.0811462,0.2817688c0.1059418,0.3667603,0.2118835,0.7341614,0.3181458,1.1012573 c0.1867676,0.6463013,0.3735352,1.2929077,0.5612717,1.9394836c0.1503754,0.5174866,0.3010788,1.0349731,0.4524231,1.552124 c0.1613312,0.5519104,0.3236237,1.1032104,0.4862366,1.6541748c0.1394348,0.4717407,0.2788696,0.9425354,0.4195862,1.4129944 c0.6076355,2.0335083,1.2287979,4.0525208,1.8692856,6.0435181c0.0006409,0.0019226,0.0012817,0.0038757,0.0019302,0.0057983 c0.2489166,0.7731628,0.5007248,1.5414734,0.7560806,2.304657c0.0012894,0.00354,0.0022583,0.0070801,0.0035477,0.0102844 c0.2595367,0.7757263,0.5216599,1.5469666,0.7892532,2.3107605c0.0012894,0.0045166,0.0032196,0.0093384,0.004509,0.013855 c4.6479263,13.269165,10.554924,24.5795288,20.3099747,28.8404236c0.3812637,0.1671143,0.7734756,0.2955933,1.1717987,0.4015503 c0.1500626,0.0395813,0.3055954,0.0621338,0.4582291,0.093689c0.2543869,0.0521545,0.5094223,0.1004639,0.7696075,0.1291199 c0.1764603,0.0193176,0.3561478,0.0267334,0.5351868,0.0354309c0.2521362,0.0122375,0.5058823,0.0170593,0.7628479,0.0080566 c0.1729202-0.0057983,0.3474503-0.0167542,0.5232697-0.0318909c0.2910995-0.0260925,0.5847702-0.0653687,0.8810272-0.1175232 c0.1394272-0.0238342,0.2782135-0.0457458,0.4189377-0.0756836c0.3139572-0.0672913,0.6314621-0.1577759,0.9502563-0.253418 c14.6734695-7.8387451,13.4253464-28.8259277,13.4073105-29.0947876c0-0.0003357,0-0.0032349,0-0.0035706 c-0.012558-0.1783752,0.0070953-0.3529053,0.0412292-0.5229492c0.0077209-0.0389404,0.0164185-0.0775757,0.0263977-0.1159058 c0.0437927-0.1655273,0.1014404-0.3265381,0.1851654-0.4743347c0.0019226-0.0032043,0.0045013-0.0057983,0.0064392-0.0090027 c0.082428-0.1436157,0.1886902-0.2727661,0.3052673-0.3922119c0.0292969-0.0299683,0.0595703-0.0592651,0.0911255-0.0875854 c0.1265564-0.1140137,0.2640533-0.2180176,0.4205475-0.2978821c0.0022583-0.000946,0.0038605-0.0028992,0.0057983-0.0038452 c0.0099792-0.0051575,0.0212555-0.0054932,0.0309143-0.0103149c0.1056213-0.0508728,0.2151031-0.0965881,0.3323059-0.1288147 c0.0415497-0.0115662,0.0830841-0.0128784,0.1242981-0.0215759c0.0457306-0.0096436,0.0908203-0.0173645,0.1362152-0.0234985 c0.1626129-0.0222168,0.3262024-0.0309143,0.487854-0.0128784c0.0057983,0.0006409,0.0115967,0,0.0173798,0.0006409 c0.1697083,0.0206299,0.3348999,0.0698853,0.4949341,0.1336365c0.0367126,0.0148315,0.072464,0.0315552,0.1082001,0.0483093 c0.1020813,0.0483093,0.1983643,0.1049805,0.2907715,0.1697083c0.047348,0.0331726,0.096283,0.0637512,0.1410522,0.099823 c0.0032196,0.0025635,0.0070801,0.0038452,0.0102997,0.0064392l0.0051575,0.0044861 c0.2885132,0.2473145,0.5094147,0.5796509,0.6182556,0.9731445c0.2566528,0.9254456,0.4714355,1.8338623,0.6981354,2.747406 c0.2704773,1.0880737,0.5210114,2.1671448,0.7502747,3.2378235c0.1813049,0.8459473,0.370636,1.6957397,0.5271454,2.5307007 c0.0028992,0.0148315,0.0067596,0.0302734,0.0093384,0.0450745c0.2073669,1.1083679,0.3773956,2.1993713,0.5425873,3.2877502 c0.0003204,0.0032349,0.0009613,0.0067749,0.0016174,0.0099792c0.1172028,0.7738037,0.2228241,1.5408325,0.3194275,2.3043213 c0.0273743,0.2157593,0.0505524,0.4292603,0.0763245,0.6443481c0.0115814,0.096283,0.0228577,0.1929016,0.0344543,0.2891846 c0.002243,0.0205994,0.0048218,0.0415344,0.0070801,0.0621338c4.518158,38.9078369-17.0466995,64.3658142-22.289711,69.9053955 c7.0417709,11.9569702,13.0479507,16.0285034,15.320076,17.2315369c6.1877899-6.4376831-0.6350098-14.697937-0.9402771-15.0611877 c-0.5834961-0.6916809-0.6259918-1.6937866-0.1004791-2.4292603c26.7454071-37.4275208,21.5600281-66.3600159,15.852356-88.1158142 c-0.3223267-1.2284851-0.6446686-2.4334717-0.9644165-3.6165466c-0.1207581-0.4459839-0.242157-0.8945313-0.3612976-1.3344116 c-0.2228394-0.8227234-0.4347229-1.6139221-0.6491852-2.4112244c-0.2724152-1.015625-0.5306702-2.008728-0.7812042-2.9834595 c-0.1419983-0.5509644-0.2930298-1.1167297-0.4256897-1.6548157c-0.2614746-1.0613403,0.3851166-2.1329956,1.4464722-2.3944702 c0.4749756-0.1178589,0.9467163-0.046051,1.3511658,0.1552124c0.1906281-0.9132385,0.3851318-1.8209839,0.5615845-2.7516174 c0.0019379-0.0093384,0.0035553-0.0193176,0.0054779-0.028656c0.2392578-1.261322,0.461441-2.5432434,0.674942-3.834198 c0.0505524-0.3052673,0.1011047-0.6105347,0.1503754-0.9187012c0.212204-1.3276672,0.4154053-2.664978,0.600235-4.0187073 c2.265686-16.5878296,4.2370453-30.3767395,6.1346588-42.6985474c2.227356-14.6396484,4.3433075-27.5195313,6.3336639-38.5610046 c-0.1149597-0.0582886-0.2350616-0.1020813-0.3400421-0.1851501c-0.8591309-0.6749573-1.0085449-1.9179077-0.3323212-2.7770386 c0.0347748-0.0444336,0.4823761-0.6237488,1.2397461-1.6625671c0.1384735-0.1896667,0.288208-0.3973694,0.4476013-0.6188965 c0.0966034-0.1342773,0.1928864-0.2679138,0.2969055-0.4137878c0.0611725-0.0856628,0.1130219-0.157135,0.1764526-0.2463379 c0.7242126-1.019165,1.6200409-2.3110962,2.6405029-3.8312988c0.8790894-1.3096313,1.8509369-2.7902527,2.9093933-4.4544067 C180.6915436,253.3361359,197.5150909,222.7906647,206.1762695,183.5196228z M87.64151,398.3547974l-0.0354156-0.756073 c-0.266304-5.6877136-0.3084869-6.5883789-1.2162399-15.171936c-6.1130905,6.4556885-18.1573257,21.4086609-15.8671722,37.0005188 c1.7826614,12.1372986,11.8938522,22.4674683,30.0540771,30.7019653c0.8964844,0.4070129,1.3588943,1.4104004,1.083252,2.355835 c-0.1288071,0.4456787-2.9006958,10.4950562,4.9602814,13.9830933c1.4168549-2.907135,4.5416641-10.5890808,6.0435257-24.2398376 c-5.7717514-1.2790222-23.2544556-6.2122498-28.3061905-19.8733215 C81.7808838,415.3873291,82.8924713,407.3505554,87.64151,398.3547974z M44.0229797,255.3863831 c-0.2862663-2.3468323-0.5570793-4.7371216-0.8327217-7.1963348c-0.8539772-7.6246185-1.7388687-15.5100555-3.3907928-24.4040375 c-9.596941-18.9211426-14.2751389-34.2280121-16.4670792-43.3525543 c-1.3717728-5.7034912-0.3387566-12.6898651,0.4907475-18.3044891c0.4740028-3.2085266,1.1824303-8.001358,0.5706062-9.127121 c-0.4778652,0.4302063-1.1708374,2.0338287-1.4658012,3.4429626c-0.0869427,0.4134674-0.3110638,0.7618866-0.6037731,1.0333405 c-0.6546516,2.3007813-1.5543537,3.8438568-2.2969151,5.1158142c-1.0510502,1.799408-1.7453079,2.988266-1.4645138,5.6403656 c0.0953159,0.9055023-0.5603008,1.71698-1.4658012,1.8135834c-0.0592499,0.0064392-0.1172123,0.0090027-0.1764622,0.0090027 c-0.8320808,0-1.5469484-0.6285553-1.6371117-1.4748077c-0.3954315-3.7276154,0.7174435-5.6339417,1.8960094-7.6510162 c0.6987667-1.1972504,1.4168549-2.4337769,1.9526844-4.2853546c-0.0202866-0.0624695-0.0592499-0.1149445-0.0734196-0.1803131 c-0.0231838-0.1043396-2.2927284-10.4319305-3.6967039-15.0470123c-0.3052673-1.0021057-0.6530409-1.3460083-0.8101835-1.391098 c-0.3464851-0.0995026-1.0884018,0.297226-1.4509888,0.5783386c-0.0270491,1.6435547,0.8845692,5.105835,1.7137508,8.2370758 c0.3026924,1.1437988,0.6247044,2.358429,0.9480057,3.6348877c0.2228327,0.882309-0.31042,1.7787933-1.1940231,2.0029144 c-0.1352453,0.0347748-0.2717781,0.0502319-0.405736,0.0502319c-0.736764,0-1.4078388-0.4971771-1.5971823-1.2442474 c-0.3194361-1.2635803-0.6388721-2.466629-0.9389877-3.6001129c-1.1495848-4.33815-1.9713612-7.4916229-1.768815-9.6825867 c-0.1729212-0.1342773-0.4897814-0.2418365-1.0198145-0.1040192c-0.8024549,0.2073822-0.6852427,1.4671021-0.6839542,1.4799805 c0.0370312,0.3278046-0.0144901,0.6523895-0.1339569,0.9512177c0.8935843,4.2335052,2.7390385,11.3203583,2.7590036,11.3973083 c0.2292728,0.8810272-0.2988281,1.7813873-1.1798544,2.0119476c-0.1391096,0.0360565-0.2795067,0.0528107-0.4173279,0.0528107 c-0.7316132,0-1.4001112-0.4907532-1.5946064-1.232666c-0.0798593-0.3084869-1.7697811-6.7993011-2.7016854-11.1152344 c-0.5844526-0.016098-0.7225962,0.1017609-0.7245283,0.1036835c-0.0051522,0.0051575-0.4675622,0.5603027,0.0051522,2.989563 c1.4915624,7.6729279,7.4603872,32.8877869,9.1786461,39.3035736 C21.5944843,216.6592255,33.2954559,239.4000702,44.0229797,255.3863831z M56.7212257,13.7391481 c4.6112175,48.1405563,19.0283623,83.0454254,26.3151894,98.1152878c0.9154816,1.0961304,2.9222641,2.1716537,6.2026062,2.1710129 c-1.7153625-2.915184-4.2972641-7.4993515-6.9100723-12.8817902c-0.4765778-0.9827881-0.0669785-2.1665039,0.915802-2.644371 c0.8166275-0.3954315,1.7639847-0.1738815,2.3378143,0.4720688c0.0090179,0.0103073,0.0189972,0.0193253,0.0276947,0.0296249 c0.1062622,0.1249466,0.2038345,0.2595444,0.278862,0.4141083c1.2677612,2.6115265,2.5377808,5.043045,3.7037888,7.1879654 h0.0003204c1.6210098,2.9811935,3.032074,5.3885574,3.9414368,6.8987961 c0.0260773-0.0061111,0.0544205-0.0148087,0.0804977-0.0209274c0.0016098-0.0003204,0.0038681-0.0009689,0.0054779-0.0016098 c0.9219208-0.2141418,1.906311-0.4987946,2.9534988-0.8617096c0.5551529-0.1925583,1.1299438-0.4099197,1.7211533-0.6485291 c-1.0658569-1.5553207-2.1094971-3.1554031-3.1219101-4.8150558c-2.2531204-3.6938019-4.3700333-7.6313705-6.3639297-11.7228622 c-0.0119171-0.0244751-0.0238342-0.0489502-0.0357437-0.0734253c-1.4039764-2.8839417-2.7483826-5.8387299-4.027092-8.8488998 c-0.0012894-0.0025787-0.0022507-0.0048294-0.0032196-0.0074081c-1.3550262-3.1898575-2.6376038-6.4321976-3.8551331-9.6958008 c-0.0218964-0.0592499-0.0434723-0.1184998-0.0656891-0.1774292C70.299202,48.3558197,64.8565521,18.6704483,63.4319649,10.1995859 C60.2401772,11.3678474,57.8740311,12.9057798,56.7212257,13.7391481z M88.5399323,20.4782276 c-0.0070877,0.6646328-0.0096664,1.3276577-0.0115967,1.990036c-0.099823,31.7266102,5.1402893,60.7331772,9.2163239,78.427124 c1.2555237,1.399147,2.3638916,2.045105,3.2842026,2.045105c0.0450821,0,0.0888748-0.0012894,0.1326675-0.0038681 c0.3909302-0.0264053,0.7847443-0.1523056,1.1798553-0.3365021c0.0189972-0.0090179,0.038002-0.0151291,0.0569992-0.0244675 c0.4279556-0.2073822,0.857193-0.5068512,1.2870865-0.8842468c-0.325882-1.1077271-0.6453171-2.2131958-0.9573441-3.3154449 c-1.1450806-4.0486603-2.2003174-8.1002274-3.1901779-12.3849258c-2.1233521-9.1957092-3.9520645-19.5216904-5.7466354-33.3205681 c-0.0830841-0.6404839-0.1668091-1.2555275-0.2498856-1.9114685c-0.1307373-1.0272179,0.5570831-1.9620209,1.5530701-2.1742287 c0.0540924-0.0115929,0.1052933-0.0302696,0.1613235-0.0373535c0.8752289-0.104332,1.6834793,0.3783646,2.0364075,1.1383133 c0.0830841,0.1793633,0.1487732,0.3693504,0.1751785,0.5760803c0.079216,0.6256714,0.1590729,1.2117348,0.2382889,1.8232384 c1.7826614,13.7199898,3.5975189,23.9638481,5.7060623,33.0832481c0.1094818,0.474968,0.2215424,0.9438171,0.332962,1.4133148 c0.4804382,2.023201,0.9769821,4.0019684,1.4915619,5.95401c0.4669189,1.7717133,0.9499359,3.5305405,1.4496994,5.2868042 c0.025116-0.0421906,0.0502319-0.0798645,0.0753479-0.1226883c0.9029236-1.5414734,1.7936096-3.3750153,2.6598282-5.4220505 c-0.5702896-2.1307526-1.116745-4.2821198-1.6461334-6.4450836c-0.5097427-2.0840607-1.0043564-4.1764984-1.4773941-6.2760239 c-0.5152206-2.2862854-1.0053177-4.5751495-1.478035-6.8614426c-6.2786026-30.3747978-8.8753128-59.9197731-9.41436-66.6907272 l-6.2277222-1.5430841c-0.3377914,4.7091112-0.5309982,9.3924618-0.611824,14.0287991 C88.5541,19.1541119,88.5463715,19.8161697,88.5399323,20.4782276z M131.162796,20.7345486 c-0.8040619,5.4230137-3.5736923,23.0277615-8.3426971,42.7874222c-0.0025787,0.0096588-0.0048294,0.0193176-0.0070877,0.0289803 c-0.720665,2.9837646-1.4876938,6.0151901-2.2994919,9.0624008c-0.0006409,0.0028992-0.0016098,0.0057907-0.0022507,0.0086899 c-0.741272,2.7825089-1.5189362,5.5750046-2.336525,8.3555832c-0.0022507,0.0070877-0.004509,0.0144882-0.0067596,0.0215759 c-1.2967453,4.4083481-2.6904144,8.7787018-4.1800461,13.0109177c-0.378685,1.0761642-0.7644577,2.1413803-1.1557007,3.1975861 c-0.3780441,1.0204544-0.7625275,2.0283508-1.1524887,3.0269165c-0.8649216,2.2164078-1.7691345,4.3468475-2.6913757,6.4312363 c-0.0502396,0.1787109-0.1288071,0.34552-0.226059,0.5026627c-0.374176,0.836586-0.741272,1.6915283-1.1247864,2.5023575 c-0.4485626,0.9480057-0.9038925,1.8757248-1.3650131,2.7850876c0.5648117-0.0566788,1.1708374-0.1159286,1.8148651-0.1761398 c1.4625778-0.1368561,3.0900345-0.27565,4.7393799-0.3922119c0.391571-0.9615326,0.911293-2.2705154,1.427803-3.6748123 c0.3693466-1.0053177,0.7351532-2.0541153,1.0484772-3.051712c0.0856552-0.2727432,0.1680908-0.5422668,0.2447281-0.8050308 c0.1767807-0.6053848,0.6205139-1.0510483,1.1624603-1.2696915c0.0663376-0.0267334,0.1323471-0.0528107,0.2015839-0.0724564 c0.0006409,0,0.0012894-0.0003204,0.0019302-0.0003204c0.3448792-0.0972519,0.7187347-0.1082001,1.0877609-0.00354 c0.3403625,0.0994949,0.6272812,0.2885208,0.8578415,0.5261612c0.0009613,0.0009689,0.0019302,0.0019379,0.0025711,0.0025787 c0.4778671,0.4946136,0.6913605,1.2181778,0.4855957,1.9249954c-0.2382889,0.8162994-0.5181122,1.6760712-0.8134003,2.5319824 c-0.0012894,0.0032196-0.0022583,0.0064392-0.00354,0.0096588c-0.0267334,0.0776062-0.0537796,0.154892-0.0808258,0.2324905 c-0.3490677,0.999527-0.7145462,1.9845657-1.0610352,2.8839493c-0.0692291,0.1793594-0.1374969,0.3567886-0.2047958,0.5284195 c0.0660095-0.0022507,0.1349182-0.0057983,0.2006073-0.0077286c0.0685959-0.0022507,0.1288071-0.0077286,0.1957855-0.0106277 c0.2273407-0.0096588,0.453392-0.0199585,0.6639938-0.0363846c0.0012894,0,0.0022507,0,0.00354-0.0003204 c0.5042725-0.0392838,0.9570236-0.0985336,1.369194-0.1703491c0.22509-0.0389633,0.4382629-0.0817871,0.6379089-0.1281586 c0.0006485-0.0003204,0.0009689-0.0003204,0.0012894-0.0003204c2.1436386-0.4991226,2.8578644-1.370163,3.0204773-1.61586 c4.7522659-15.5506287,15.0096512-54.3315697,11.3393478-89.1082764L131.162796,20.7345486z M111.463356,15.946866 c-0.2827225,19.0064697-1.4062271,39.1258163-2.6617508,56.528019c0.7374039,3.542778,1.5263367,7.0923233,2.3677521,10.6154633 c0.8101883-7.1966553,1.1125565-14.4693146,1.4957504-24.9778709c0.0386429-1.0922661,0.9982376-1.9256325,2.0492859-1.9050255 c1.0922699,0.0399323,1.9449615,0.9570236,1.9050293,2.0492897c-0.1655121,4.5435944-0.3168564,8.4808464-0.4997635,12.0825539 c1.3692017-6.0519028,2.4331284-12.1392288,3.0513916-17.4743347c0.4585495-17.4517899,0.5551529-31.5089264,0.5744705-36.402874 L111.463356,15.946866z M84.5682297,22.0129395l-3.2529755-0.3741798 c-1.0954895,12.5546265-0.4479218,25.7964249,1.061676,38.4148102c3.076828,12.7301216,6.0689697,22.1557503,8.798027,28.8735771 C87.7445602,71.1935959,84.45327,47.4503212,84.5682297,22.0129395z M83.482399,121.3360977 c-1.6583633,0.9103317-2.4144516,1.8251724-2.6836548,2.7458038c0.5316467,2.0950165,4.0718536,5.0404587,14.4831619,4.4756546 c5.4474869-0.6269608,11.2627106-1.0433197,17.4646759-1.2445831c6.0300064-0.6994095,11.0640259-1.8258057,13.2872009-3.8789597 c-4.7097549-0.5657806-10.4332047-0.3709564-16.4493713,0.1497345c-2.9187164,0.2524567-5.9028091,0.5783386-8.8736954,0.932869 c-0.0798569,0.0103073-0.158432,0.0141678-0.2369995,0.0141678c-0.8913345,0-1.6441956-0.6153641-1.8766937-1.4719162 c-0.025116-0.0927429-0.0734177-0.1738892-0.0850067-0.2721024c-0.0814743-0.6800919,0.1932068-1.3208923,0.6768646-1.73629 c0.0006485,0,0.0009689-0.0003204,0.0012894-0.0006409c0.0576401-0.0495911,0.1233292-0.0895233,0.1864471-0.1320267 c0.2524567-0.1700211,0.5422668-0.29142,0.8652496-0.3297424c0.3091278-0.0367126,0.6185837-0.0721283,0.9277191-0.1085205 c1.4123459-0.1655121,2.8256607-0.3236237,4.2354279-0.4698181c0.6594849-0.0689087,1.3173523-0.1342773,1.9736176-0.1970673 h0.0003204c0.6614151-0.063118,1.3202515-0.1226883,1.9768372-0.179039 c2.7522354-0.2357178,5.4519882-0.4031601,8.044838-0.4662781c0.5094223-0.0122299,1.0149841-0.0212479,1.5157089-0.025116 c0.0028992,0,0.0054779,0,0.0083771,0c0.8002014-0.0061188,1.5868759,0,2.3613129,0.0177155c0.0003281,0,0.0009689,0,0.0012894,0 c0.7428818,0.0167389,1.4744949,0.0434723,2.1903305,0.0846863c0.0009689,0,0.0025787,0,0.00354,0 c1.045578,0.0598984,2.0563736,0.1494141,3.0349731,0.2666245c-0.4788361-0.6388702-1.0462189-1.1891937-1.7372589-1.6248703 c-0.0009689-0.0006485-0.0022583-0.0009689-0.00354-0.0016098c-0.5306778-0.3342514-1.1428223-0.5966949-1.8061676-0.8156586 c-0.0022583-0.0006485-0.004837-0.0016098-0.0074081-0.0022583c-0.2930298-0.096283-0.5693207-0.2067337-0.8887558-0.2811127 c-0.1403961-0.0328445-0.3033371-0.0627975-0.4643402-0.0933838c-0.5071716-0.0953217-1.1035385-0.1796875-1.7971573-0.2492371 c-0.1117325-0.0109482-0.2353897-0.0202866-0.3516312-0.0309143c-0.0016174,0-0.0028992,0-0.0041885,0 c-0.5020218-0.0450821-1.0378494-0.0846939-1.6171494-0.1156006c-1.1399231-0.0608673-2.4163818-0.0937119-3.801033-0.0943527 c-0.0144958,0.0006409-0.0283356,0.0064392-0.0431519,0.0064392c-0.0180359,0-0.0367126-0.0051498-0.0547409-0.0054703 c-0.0721283,0-0.1510239,0.0022507-0.2238007,0.0025711h-0.0003204c-0.5499954,0.0019302-1.1141663,0.0083771-1.6931458,0.0202866 c-0.0025711,0-0.0051498,0-0.0077286,0c-1.0352707,0.0218964-2.1156158,0.0627975-3.2259216,0.1191483 c-0.3477707,0.0177078-0.7003708,0.0386429-1.0539474,0.0598907c-0.3126678,0.0186768-0.6176147,0.0328445-0.9344788,0.0547409 c-0.6121445,0.0418625-1.2362061,0.0943527-1.8602676,0.1474838c-0.0399246,0.0032196-0.0798569,0.0057983-0.1201096,0.0093384 c-0.5280991,0.0454025-1.0590973,0.0975723-1.5933151,0.1510239c-0.0982132,0.0096588-0.196106,0.0199661-0.2946396,0.0302734 c-0.0528107,0.0051498-0.1059418,0.0106201-0.1590805,0.016098c-0.3001099,0.0315552-0.5976486,0.058609-0.898735,0.0924149 c-0.3184662,0.0357437-0.6366196,0.0776062-0.9560547,0.1162491c-0.34552,0.0421829-0.69104,0.0869446-1.0372009,0.1326675 c-0.6591644,0.0869446-1.3154221,0.1816177-1.9729691,0.2820816c-0.9853592,0.1507034-1.9623489,0.3171844-2.9325714,0.4991226 c-0.0006409,0-0.0012894,0.0003204-0.0019302,0.0003204c-0.4186172,0.0785751-0.8417435,0.150383-1.2555313,0.2347488 c-0.0212479,0.004509-0.0392838,0.0086899-0.0605392,0.0131989c-0.2263718,0.0463715-0.4227982,0.0927429-0.6417694,0.1391144 h-0.0003204c-0.674614,0.1429749-1.3237915,0.2862701-1.9288559,0.4292374 c-0.0012894,0.0003281-0.0019302,0.0006485-0.0032196,0.0006485c-2.4521255,0.5805893-4.3449173,1.1621399-5.8013763,1.7453079 c-0.0003204,0.0003204-0.0006485,0.0003204-0.0006485,0.0003204c-0.6945801,0.2782211-1.2886887,0.5567627-1.7971497,0.8356247 C83.4836884,121.3357773,83.4830399,121.3357773,83.482399,121.3360977z" fill="#171017"/></g></g></svg>